# xmcd
#
# Track frame offsets: 
#        150
#        18937
#        44576
#        63238
#        85822
#        112667
#        135275
#        149247
#        170472
#        186883
#        205533
#
# Disc length: 3213 seconds
#
# Revision: 0
# Processed by: cddbd v1.5.2PL0 Copyright (c) Steve Scherf et al.
# Submitted via: ExactAudioCopy v0.95b4
#
DISCID=8f0c8b0b
DTITLE=Catfish Flats - Down at the Flats
DYEAR=2006
DGENRE=Blues
TTITLE0=Slide On By
TTITLE1=Tryin' to Tell You Baby
TTITLE2=Airport Blues
TTITLE3=Livin' with Regrets
TTITLE4=The Fever
TTITLE5=South of Highway 31
TTITLE6=Mayday Stomp
TTITLE7=Cajun Rain
TTITLE8=Rembemering Duane
TTITLE9=Doing Me Wrong
TTITLE10=Down at the Flats
EXTD=
EXTT0=
EXTT1=
EXTT2=
EXTT3=
EXTT4=
EXTT5=
EXTT6=
EXTT7=
EXTT8=
EXTT9=
EXTT10=
PLAYORDER=
